<svg width="64" height="64" viewBox="0 0 64 64" fill="none" xmlns="http://www.w3.org/2000/svg">
<path d="M0 0.801758V63.1978H64V0.801758H0ZM2.666 3.46776H61.332V60.5298H2.666V3.46776ZM18.094 36.1358L15.98 44.0938C15.938 44.3118 15.844 44.3958 15.584 44.3958H11.668C11.408 44.3958 11.366 44.3018 11.408 43.9998L18.98 17.5098C19.106 17.0298 19.198 16.6458 19.24 15.3218C19.24 15.1438 19.324 15.0518 19.458 15.0518H25.052C25.23 15.0518 25.312 15.1038 25.354 15.3218L33.844 44.0398C33.886 44.2578 33.844 44.3838 33.626 44.3838H29.23C29.012 44.3838 28.876 44.3118 28.834 44.1338L26.636 36.1238H18.094V36.1358ZM25.572 31.8018C24.822 28.8538 23.01 22.3858 22.354 19.2698H22.312C21.74 22.3838 20.302 27.6658 19.198 31.8018H25.572ZM39.864 34.5318C39.916 38.1458 41.624 40.5638 45.676 40.5638C47.26 40.5638 48.614 40.3558 50.02 39.7298C50.198 39.6458 50.332 39.6978 50.332 39.9178V43.2618C50.332 43.5218 50.248 43.6578 50.062 43.7938C48.656 44.4918 46.906 44.8038 44.708 44.8038C37.666 44.8038 35.03 39.6158 35.03 33.8038C35.03 27.5118 38.28 22.3658 44.01 22.3658C49.812 22.3658 51.832 27.2518 51.832 31.2098C51.832 32.4918 51.738 33.5438 51.614 34.0318C51.562 34.2498 51.478 34.3238 51.26 34.3658C50.728 34.4598 49.146 34.5438 46.812 34.5438H39.864V34.5318ZM45.282 30.8638C46.646 30.8638 47.126 30.8638 47.262 30.8218C47.262 30.6438 47.304 30.4878 47.304 30.3638C47.304 28.9058 46.596 26.2378 43.824 26.2378C41.272 26.2378 40.168 28.4878 39.908 30.8638H45.282Z" fill="white"/>
</svg>
