<svg width="64" height="64" viewBox="0 0 64 64" fill="none" xmlns="http://www.w3.org/2000/svg">
<path d="M0 0.801758V63.1978H64V0.801758H0ZM2.666 3.46776H61.332V60.5298H2.666V3.46776ZM22.198 36.1358L20.084 44.1258C20.042 44.3558 19.958 44.3958 19.698 44.3958H15.782C15.512 44.3958 15.47 44.3118 15.512 44.0098L23.084 17.4898C23.22 17.0098 23.302 16.5838 23.344 15.2598C23.344 15.0818 23.438 14.9998 23.574 14.9998H29.158C29.336 14.9998 29.428 15.0418 29.47 15.2598L37.96 44.0518C38.012 44.2698 37.96 44.3958 37.742 44.3958H33.346C33.116 44.3958 32.992 44.3438 32.95 44.1658L30.742 36.1338H22.19L22.198 36.1358ZM29.636 31.8018C28.886 28.8538 27.126 22.3958 26.47 19.2698H26.418C25.856 22.3838 24.438 27.6658 23.346 31.8018H29.636ZM41.636 16.9798C41.636 15.2618 42.824 14.2498 44.366 14.2498C45.992 14.2498 47.096 15.3538 47.096 16.9798C47.096 18.7398 45.95 19.7098 44.314 19.7098C42.72 19.7098 41.626 18.7418 41.626 16.9798H41.636ZM41.938 23.0418C41.938 22.8338 42.022 22.7498 42.24 22.7498H46.428C46.668 22.7498 46.75 22.8338 46.75 23.0618V44.1138C46.75 44.3318 46.708 44.4158 46.438 44.4158H42.312C42.042 44.4158 41.958 44.2898 41.958 44.0718V23.0398L41.938 23.0418Z" fill="white"/>
</svg>
