<svg width="64" height="64" viewBox="0 0 64 64" fill="none" xmlns="http://www.w3.org/2000/svg">
<path d="M10 10V54H54V10H10ZM14 14H50V50H14V14ZM22 20V43.98C33.86 43.98 36.234 44.14 38.454 43.48C39.754 43.08 43.314 41.8 43.314 37.3C43.314 35.3 42.714 31.92 38.794 31.08V31.02H38.054C40.054 30.12 41.314 28.42 41.314 25.92C41.314 25.28 41.494 20 34.494 20H22ZM26 24H34C37.018 24 37.312 25.706 37.312 26.98C37.312 30.088 34.06 30 34 30H26V24ZM26 34H35.52C39.24 34 39.312 36.352 39.312 36.96C39.312 40.08 36.09 40 35.7 40H26V34Z" fill="white"/>
</svg>
