<svg width="64" height="64" viewBox="0 0 64 64" fill="none" xmlns="http://www.w3.org/2000/svg">
<path d="M16.4 44C22 44 24 40 24 40L20.8 38C20.8 38 19.6 40 16.8 40C14 40 12 36.4 12 31.2C12 26.4 14.4 24 16.8 24C18.8 24 20.4 25.6 20.4 25.6L23.6 23.2C23.6 23.2 20.8 20 16.8 20C12.4 20 8 23.6 8 31.2C8 38.8 11.6 44 16.4 44ZM34.8 39.6C33.6 40 32 39.6 30.8 38L27.6 40C29.2 42.4 31.6 44 34 44C34.4 44 35.2 44 35.6 43.6C38.4 42.8 40 40.4 40 37.2C40 32.4 36.8 30.8 34.8 30C32.8 28.8 32 28.4 32 26.8C32 25.2 32.4 24 34.4 24C35.6 24 36.8 25.6 36.8 25.6L40 23.2C39.2 22 37.2 20 34.4 20C30.8 20 28 22.4 28 26.4C28 30.8 30.8 32.4 32.8 33.6C35.2 34.4 36 35.2 36 37.2C36 38.4 36 39.6 34.8 39.6ZM50.8 39.6C49.6 40 48 39.6 46.8 38L43.6 40C45.2 42.4 47.6 44 50 44C50.4 44 51.2 44 51.6 43.6C54.4 42.8 56 40.4 56 37.2C56 32.4 52.8 30.8 50.8 30C48.8 28.8 48 28.4 48 26.8C48 25.2 48.4 24 50.4 24C51.6 24 52.8 25.6 52.8 25.6L56 23.2C55.2 22 53.2 20 50.4 20C46.8 20 44 22.4 44 26.4C44 30.8 46.8 32.4 48.8 33.6C51.2 34.4 52 35.2 52 37.2C52 38.4 52 39.6 50.8 39.6ZM0 0V64H64V0H0ZM60 60H4V4H60V60Z" fill="white"/>
</svg>
