<svg width="64" height="64" viewBox="0 0 64 64" fill="none" xmlns="http://www.w3.org/2000/svg">
<path d="M13.333 14.6668C13.333 12.1915 14.3163 9.81751 16.0667 8.06717C17.817 6.31683 20.191 5.3335 22.6663 5.3335H31.9997V24.0002H22.6663C20.191 24.0002 17.817 23.0168 16.0667 21.2665C14.3163 19.5162 13.333 17.1422 13.333 14.6668Z" stroke="white" stroke-width="5.33333" stroke-linecap="round" stroke-linejoin="round"/>
<path d="M32 5.3335H41.3333C42.559 5.3335 43.7727 5.57491 44.905 6.04395C46.0374 6.513 47.0663 7.20049 47.933 8.06717C48.7997 8.93385 49.4872 9.96274 49.9562 11.0951C50.4253 12.2275 50.6667 13.4412 50.6667 14.6668C50.6667 15.8925 50.4253 17.1062 49.9562 18.2385C49.4872 19.3709 48.7997 20.3998 47.933 21.2665C47.0663 22.1332 46.0374 22.8207 44.905 23.2897C43.7727 23.7588 42.559 24.0002 41.3333 24.0002H32V5.3335Z" stroke="white" stroke-width="5.33333" stroke-linecap="round" stroke-linejoin="round"/>
<path d="M32 33.3333C32 32.1077 32.2414 30.894 32.7105 29.7616C33.1795 28.6293 33.867 27.6004 34.7337 26.7337C35.6004 25.867 36.6293 25.1795 37.7616 24.7105C38.894 24.2414 40.1077 24 41.3333 24C42.559 24 43.7727 24.2414 44.905 24.7105C46.0374 25.1795 47.0663 25.867 47.933 26.7337C48.7997 27.6004 49.4872 28.6293 49.9562 29.7616C50.4253 30.894 50.6667 32.1077 50.6667 33.3333C50.6667 34.559 50.4253 35.7727 49.9562 36.905C49.4872 38.0374 48.7997 39.0663 47.933 39.933C47.0663 40.7997 46.0374 41.4872 44.905 41.9562C43.7727 42.4253 42.559 42.6667 41.3333 42.6667C40.1077 42.6667 38.894 42.4253 37.7616 41.9562C36.6293 41.4872 35.6004 40.7997 34.7337 39.933C33.867 39.0663 33.1795 38.0374 32.7105 36.905C32.2414 35.7727 32 34.559 32 33.3333V33.3333Z" stroke="white" stroke-width="5.33333" stroke-linecap="round" stroke-linejoin="round"/>
<path d="M13.333 52.0003C13.333 49.525 14.3163 47.151 16.0667 45.4007C17.817 43.6503 20.191 42.667 22.6663 42.667H31.9997V52.0003C31.9997 54.4757 31.0163 56.8497 29.266 58.6C27.5157 60.3503 25.1417 61.3337 22.6663 61.3337C20.191 61.3337 17.817 60.3503 16.0667 58.6C14.3163 56.8497 13.333 54.4757 13.333 52.0003Z" stroke="white" stroke-width="5.33333" stroke-linecap="round" stroke-linejoin="round"/>
<path d="M13.333 33.3333C13.333 30.858 14.3163 28.484 16.0667 26.7337C17.817 24.9833 20.191 24 22.6663 24H31.9997V42.6667H22.6663C20.191 42.6667 17.817 41.6833 16.0667 39.933C14.3163 38.1827 13.333 35.8087 13.333 33.3333Z" stroke="white" stroke-width="5.33333" stroke-linecap="round" stroke-linejoin="round"/>
</svg>
