<svg width="64" height="64" viewBox="0 0 64 64" fill="none" xmlns="http://www.w3.org/2000/svg">
<path d="M12.8002 51.2002V44.8002H6.4002V51.2002H3.2002V35.2002H6.4002V41.6002H12.8002V35.2002H16.0002V51.2002H12.8002Z" fill="white"/>
<path d="M22.3999 51.2002V38.4002H17.9199V35.2002H29.7599V38.4002H25.5999V51.2002H22.3999Z" fill="white"/>
<path d="M32 51.2002V35.2002H35.2L39.68 46.0802H40L44.8 35.2002H48V51.2002H44.8V41.2802H44.48L40.96 49.2802H39.04L35.52 41.2802H35.2V51.2002H32Z" fill="white"/>
<path d="M60.8002 51.2002H51.2002V35.2002H54.4002V48.0002H60.8002V51.2002Z" fill="white"/>
<path d="M30.08 13.4401L22.72 20.8001L30.08 28.1601L28.16 32.0001L16.96 20.8001L28.16 9.6001L30.08 13.4401ZM33.92 28.1601L41.28 20.8001L33.92 13.4401L35.84 9.6001L47.04 20.8001L35.84 32.0001L33.92 28.1601Z" fill="white"/>
</svg>
