<svg width="64" height="64" viewBox="0 0 64 64" fill="none" xmlns="http://www.w3.org/2000/svg">
<path d="M4 4V60H60V4H4ZM34.476 47.674C34.476 53.124 31.276 55.612 26.614 55.612C22.402 55.612 19.964 53.438 18.714 50.8L23.002 48.212C23.828 49.674 24.578 50.912 26.39 50.912C28.114 50.912 29.214 50.236 29.214 47.6V29.712H34.476V47.674ZM46.924 55.612C42.036 55.612 38.874 53.288 37.336 50.236L41.624 47.762C42.75 49.6 44.224 50.962 46.812 50.962C48.986 50.962 50.388 49.874 50.388 48.362C50.388 46.562 48.962 45.924 46.55 44.862L45.238 44.3C41.438 42.688 38.926 40.65 38.926 36.362C38.926 32.412 41.938 29.412 46.626 29.412C49.976 29.412 52.376 30.574 54.102 33.624L50.002 36.25C49.102 34.638 48.126 34 46.614 34C45.078 34 44.102 34.976 44.102 36.25C44.102 37.826 45.078 38.462 47.34 39.45L48.652 40.012C53.128 41.924 55.64 43.888 55.64 48.286C55.64 53.012 51.914 55.61 46.926 55.61L46.924 55.612Z" fill="white"/>
</svg>
