<svg width="80" height="64" viewBox="0 0 80 64" fill="none" xmlns="http://www.w3.org/2000/svg">
<path d="M40 13.0624C61.425 13.0624 77.9 22.0874 77.9 31.9999C77.9 41.9124 61.4125 50.9374 40 50.9374C18.575 50.9374 2.1 41.9124 2.1 31.9999C2.1 22.0874 18.5875 13.0624 40 13.0624ZM40 10.9624C17.9125 10.9624 0 20.3749 0 31.9999C0 43.6249 17.9125 53.0374 40 53.0374C62.0875 53.0374 80 43.6249 80 31.9999C80 20.3749 62.0875 10.9624 40 10.9624ZM27.275 30.3124C26.2875 35.3749 22.8 34.8499 18.5125 34.8499L20.225 26.0249C24.975 26.0249 28.2 25.5124 27.275 30.3124ZM12.175 43.7874H16.7625L17.85 38.1874C22.9875 38.1874 26.175 38.5624 29.125 35.7999C32.3875 32.7999 33.2375 27.4624 30.9125 24.7874C29.7 23.3874 27.75 22.6999 25.1 22.6999H16.2625L12.175 43.7874ZM35.3875 17.0874H39.95L38.8625 22.6874C42.8 22.6874 46.45 22.3999 48.2125 24.0249C50.0625 25.7249 49.175 27.8999 47.175 38.1624H42.55C44.475 28.2374 44.8375 27.4124 44.1375 26.6624C43.4625 25.9374 41.925 26.0874 38.2125 26.0874L35.8625 38.1624H31.3L35.3875 17.0874ZM63.125 30.3124C62.125 35.4499 58.5375 34.8499 54.3625 34.8499L56.075 26.0249C60.85 26.0249 64.05 25.5124 63.125 30.3124ZM48.025 43.7874H52.625L53.7125 38.1874C59.1125 38.1874 62.1 38.4999 64.9875 35.7999C68.25 32.7999 69.1 27.4624 66.775 24.7874C65.5625 23.3874 63.6125 22.6999 60.9625 22.6999H52.125L48.025 43.7874Z" fill="white"/>
</svg>
