<svg width="64" height="64" viewBox="0 0 64 64" fill="none" xmlns="http://www.w3.org/2000/svg">
<path d="M0 0.801758V63.1978H64V0.801758H0ZM2.666 3.46776H61.332V60.5298H2.666V3.46776ZM16.792 15.4058C16.792 15.2278 16.834 15.0938 17.062 15.0938C19.3454 15.0007 21.6307 14.9587 23.916 14.9678C31.312 14.9678 34.52 19.0198 34.52 24.2078C34.52 30.9778 29.624 33.8858 23.592 33.8858C22.582 33.8858 22.228 33.8438 21.52 33.8438V44.0938C21.52 44.3118 21.436 44.3958 21.218 44.3958H17.104C16.874 44.3958 16.792 44.3118 16.792 44.0938V15.4058ZM21.52 29.5718C22.146 29.6138 22.624 29.6138 23.686 29.6138C26.8 29.6138 29.728 28.5198 29.728 24.2918C29.728 20.9058 27.644 19.1878 24.072 19.1878C23.02 19.1878 22.01 19.2398 21.52 19.2818V29.5718ZM38.594 27.1558C38.594 26.8438 38.594 26.0518 38.458 24.5618C38.458 24.3438 38.49 24.2918 38.666 24.2078C41.7783 23.0103 45.0814 22.3856 48.416 22.3638C48.634 22.3638 48.728 22.4058 48.728 22.6238V26.4998C48.728 26.7178 48.656 26.7598 48.436 26.7598C46.7374 26.6537 45.0331 26.8336 43.394 27.2918V44.0938C43.394 44.3118 43.3 44.3958 43.082 44.3958H38.894C38.676 44.3958 38.592 44.3118 38.592 44.0938L38.594 27.1558Z" fill="white"/>
</svg>
