<svg width="64" height="64" viewBox="0 0 64 64" fill="none" xmlns="http://www.w3.org/2000/svg">
<path d="M0 0.801758V63.1978H64V0.801758H0ZM2.666 3.46776H61.332V60.5298H2.666V3.46776ZM15.468 15.4158C15.468 15.2378 15.844 15.1038 16.062 15.1038C18.3527 15.0069 20.6453 14.9615 22.938 14.9678C30.334 14.9678 33.208 19.0198 33.208 24.2078C33.208 30.9898 28.292 33.8958 22.27 33.8958C21.25 33.8958 20.906 33.8438 20.198 33.8438V44.0938C20.198 44.3118 20.114 44.4058 19.896 44.4058H15.77C15.552 44.4058 15.468 44.3218 15.468 44.1038V15.4158ZM20.198 29.5838C20.812 29.6258 21.302 29.6258 22.364 29.6258C25.478 29.6258 28.416 28.5218 28.416 24.3038C28.416 20.9178 26.312 19.1998 22.75 19.1998C21.698 19.1998 20.688 19.2418 20.198 19.2838V29.5838ZM43.156 26.4058C41.042 26.4058 40.334 27.4678 40.334 28.3438C40.334 29.3118 40.814 29.9698 43.636 31.4278C47.814 33.4598 49.136 35.3858 49.136 38.2498C49.136 42.5098 45.876 44.8018 41.48 44.8018C39.146 44.8018 37.158 44.3118 36.012 43.6558C35.846 43.5718 35.804 43.4378 35.804 43.2178V39.3018C35.804 39.0418 35.93 38.9478 36.106 39.0838C37.7022 40.1216 39.5661 40.672 41.47 40.6678C43.584 40.6678 44.46 39.7918 44.46 38.5958C44.46 37.6278 43.846 36.7938 41.168 35.3878C37.376 33.5758 35.792 31.7318 35.792 28.6478C35.792 25.2098 38.48 22.3558 43.136 22.3558C45.428 22.3558 47.042 22.7098 47.928 23.0958C48.146 23.2318 48.188 23.4498 48.188 23.6278V27.2838C48.188 27.5018 48.052 27.6378 47.792 27.5438C46.604 26.8458 44.854 26.3978 43.146 26.3978L43.156 26.4058Z" fill="white"/>
</svg>
