<svg width="64" height="64" viewBox="0 0 64 64" fill="none" xmlns="http://www.w3.org/2000/svg">
<path d="M32.0002 34.7466C34.6291 34.7466 36.7602 32.6154 36.7602 29.9866C36.7602 27.3577 34.6291 25.2266 32.0002 25.2266C29.3714 25.2266 27.2402 27.3577 27.2402 29.9866C27.2402 32.6154 29.3714 34.7466 32.0002 34.7466Z" fill="white"/>
<path d="M18.672 39.4508L17.6186 39.1815C9.79464 37.2055 5.30664 33.8455 5.30664 29.9761C5.30664 26.1041 9.79731 22.7468 17.6186 20.7708L18.672 20.5041L18.968 21.5468C19.7588 24.2767 20.7719 26.9371 21.9973 29.5015L22.224 29.9761L21.9973 30.4508C20.7706 33.0188 19.7546 35.6801 18.968 38.4108L18.672 39.4508ZM17.1333 23.1975C11.1893 24.8721 7.53864 27.4268 7.53864 29.9761C7.53864 32.5201 11.1866 35.0775 17.1333 36.7495C17.8613 34.4348 18.7413 32.1708 19.76 29.9761C18.7339 27.7778 17.8564 25.5132 17.1333 23.1975ZM45.3253 39.4508L45.032 38.4055C44.2391 35.6751 43.2251 33.0138 42 30.4481L41.7733 29.9761L42 29.4988C43.2266 26.9361 44.2373 24.2721 45.032 21.5415L45.3253 20.5015L46.3786 20.7681C54.2053 22.7441 58.6906 26.1015 58.6906 29.9761C58.6906 33.8481 54.2026 37.2055 46.3786 39.1815L45.3253 39.4508ZM44.232 29.9761C45.2986 32.2855 46.1866 34.5575 46.864 36.7495C52.8106 35.0775 56.4613 32.5201 56.4613 29.9761C56.4613 27.4268 52.8133 24.8748 46.864 23.1975C46.1367 25.5125 45.2575 27.7769 44.232 29.9761Z" fill="white"/>
<path d="M17.1171 23.1865L16.8237 22.1465C14.6211 14.3918 15.2877 8.83717 18.6557 6.90117C21.9491 4.9945 27.2477 7.24783 32.7971 12.9412L33.5544 13.7198L32.7971 14.4958C30.8261 16.5457 29.0246 18.752 27.4104 21.0932L27.1091 21.5252L26.5864 21.5678C23.748 21.7908 20.9324 22.2447 18.1677 22.9252L17.1171 23.1865ZM21.3357 8.4425C20.7384 8.4425 20.2104 8.57317 19.7651 8.82917C17.5571 10.1012 17.1677 14.5305 18.6877 20.5092C21.0637 19.9838 23.4611 19.6078 25.8771 19.3972C27.2758 17.4133 28.8016 15.5222 30.4451 13.7358C26.9704 10.3572 23.6904 8.4425 21.3357 8.4425ZM42.6611 53.7332C39.4931 53.7332 35.4237 51.3438 31.1997 47.0078L30.4451 46.2318L31.1997 45.4585C33.171 43.4054 34.9733 41.1964 36.5891 38.8532L36.8877 38.4265L37.4051 38.3758C40.2445 38.1569 43.0611 37.7047 45.8264 37.0238L46.8797 36.7572L47.1757 37.7998C49.3677 45.5492 48.7037 51.1118 45.3411 53.0478C44.5246 53.5106 43.5995 53.7472 42.6611 53.7332ZM33.5544 46.2132C37.0264 49.5918 40.3091 51.5092 42.6611 51.5092C43.2611 51.5092 43.7891 51.3758 44.2317 51.1225C46.4424 49.8478 46.8344 45.4105 45.3091 39.4318C42.9357 39.9598 40.5357 40.3385 38.1144 40.5492C36.7216 42.5362 35.1983 44.4283 33.5544 46.2132Z" fill="white"/>
<path d="M46.8803 23.1865L45.827 22.9225C43.0619 22.24 40.2453 21.786 37.4057 21.5652L36.8883 21.5199L36.5897 21.0879C34.9762 18.7454 33.1737 16.5389 31.2003 14.4905L30.4457 13.7145L31.2003 12.9412C36.747 7.25053 42.043 4.9972 45.3417 6.9012C48.707 8.83987 49.3763 14.3945 47.1763 22.1465L46.8803 23.1865ZM38.115 19.3972C40.659 19.6239 43.0697 20.0052 45.3097 20.5092C46.8323 14.5305 46.443 10.1012 44.2323 8.82653C42.035 7.55453 37.899 9.5012 33.555 13.7359C35.1977 15.5225 36.723 17.4105 38.115 19.3972ZM21.3363 53.7332C20.398 53.7466 19.473 53.5101 18.6563 53.0479C15.2883 51.1119 14.6217 45.5519 16.8217 37.7999L17.1097 36.7572L18.163 37.0239C20.7337 37.6719 23.5657 38.1279 26.5843 38.3759L27.1017 38.4265L27.403 38.8532C29.0137 41.1945 30.8163 43.4052 32.7897 45.4585L33.547 46.2319L32.7897 47.0079C28.5683 51.3465 24.499 53.7332 21.3363 53.7332ZM18.6883 39.4345C17.1683 45.4132 17.5577 49.8505 19.7657 51.1252C21.9657 52.3785 26.0883 50.4452 30.4457 46.2132C28.8029 44.4263 27.2771 42.5352 25.8777 40.5519C23.4593 40.338 21.0576 39.9647 18.6883 39.4345Z" fill="white"/>
<path d="M31.9998 40.8346C30.1678 40.8346 28.2878 40.7572 26.3998 40.5999L25.8771 40.5546L25.5758 40.1226C24.5111 38.5916 23.5094 37.0179 22.5731 35.4052C21.6437 33.7883 20.7799 32.1345 19.9838 30.4479L19.7598 29.9759L19.9838 29.4986C20.7811 27.8132 21.6424 26.1599 22.5731 24.5439C23.4984 22.9546 24.5091 21.3652 25.5758 19.8239L25.8771 19.3972L26.3998 19.3492C30.1248 19.0372 33.8694 19.0372 37.5944 19.3492L38.1118 19.3999L38.4131 19.8266C40.5459 22.8899 42.4191 26.126 44.0131 29.5012L44.2344 29.9786L44.0131 30.4506C42.4235 33.8281 40.5501 37.0646 38.4131 40.1252L38.1118 40.5572L37.5944 40.6026C35.7118 40.7546 33.8291 40.8346 31.9998 40.8346ZM27.1091 38.4239C30.4024 38.6719 33.5971 38.6719 36.8878 38.4239C38.7248 35.7338 40.3578 32.9099 41.7731 29.9759C40.3628 27.0393 38.7296 24.215 36.8878 21.5279C33.633 21.2772 30.3638 21.2772 27.1091 21.5279C25.2657 24.214 23.6324 27.0384 22.2238 29.9759C23.6421 32.9083 25.275 35.732 27.1091 38.4239Z" fill="white"/>
</svg>
